<svg width="300" height="48" viewBox="0 0 300 48" fill="none" xmlns="http://www.w3.org/2000/svg">
<path d="M41.0673 14.6467L20.2904 28.892H33.2787C31.713 33.7693 27.1837 37.296 21.8367 37.296C15.1924 37.296 9.80545 31.8507 9.80545 25.1344C9.80545 18.4182 15.1924 12.9729 21.8367 12.9729C24.8425 12.9729 27.588 14.0915 29.6961 15.9339L37.977 10.2554C33.9845 5.83062 28.2355 3.04968 21.8413 3.04968C9.77918 3.04968 0 12.9336 0 25.1275C0 37.3202 9.77804 47.2053 21.8413 47.2053C33.9045 47.2053 43.6826 37.3214 43.6826 25.1275C43.6826 21.3342 42.7358 17.7648 41.0673 14.6467Z" fill="white"/>
<path d="M71.4529 14.617C69.9438 13.9453 68.262 13.6041 66.4551 13.6041C64.8343 13.6041 63.3044 13.8912 61.9101 14.4592C60.5143 15.0273 59.2779 15.8418 58.2366 16.8832C57.1953 17.9216 56.3671 19.1464 55.7742 20.5229C55.1798 21.9009 54.8789 23.4082 54.8789 25.0057C54.8789 26.6031 55.1753 28.1149 55.7578 29.502C56.3403 30.8875 57.1581 32.1228 58.1889 33.1733C59.2198 34.2237 60.4353 35.0548 61.7984 35.6438C63.1644 36.2329 64.6377 36.5305 66.178 36.5305C68.2978 36.5305 70.2075 36.0781 71.8536 35.184C73.5071 34.2868 74.821 32.9238 75.761 31.1325C76.6965 29.3502 77.1717 27.1111 77.1717 24.4782V23.6216H65.6685V27.8129L72.1664 27.876L72.1515 27.9346C72.0309 28.4125 71.8655 28.8558 71.6584 29.251C71.1713 30.1842 70.4608 30.8966 69.5461 31.3684C68.621 31.8448 67.477 32.0868 66.1482 32.0868C64.9252 32.0868 63.8124 31.7907 62.8411 31.2046C61.8684 30.6201 61.0848 29.789 60.5128 28.7356C59.9408 27.6806 59.6503 26.4258 59.6503 25.0042C59.6503 23.6246 59.9408 22.3894 60.5128 21.3344C61.0833 20.2825 61.8863 19.4529 62.8992 18.8684C63.9137 18.2823 65.101 17.9847 66.4253 17.9847C67.5932 17.9847 68.6776 18.2176 69.6459 18.676C70.6097 19.1328 71.4171 19.8061 72.0458 20.6792L72.2066 20.9031L75.4094 17.6721L75.2739 17.5068C74.2505 16.2625 72.9649 15.2917 71.4529 14.617Z" fill="white"/>
<path d="M94.4696 36.1856H100.142L92.8876 26.9556L92.9636 26.9406C93.698 26.8038 94.3817 26.5769 94.9969 26.2673C96.0978 25.7128 96.9618 24.9374 97.5651 23.9636C98.1699 22.9898 98.4768 21.8251 98.4768 20.5042C98.4768 19.2253 98.1699 18.0772 97.5651 17.0929C96.9603 16.1101 96.1023 15.3241 95.0133 14.7591C93.9289 14.197 92.6671 13.9115 91.2639 13.9115H82.5479V36.1841H87.1971V27.0984H87.568L94.4696 36.1856ZM87.1956 17.8277H90.8661C91.821 17.8277 92.5614 18.0907 93.0663 18.6092C93.5803 19.1367 93.8291 19.7874 93.8291 20.5989C93.8291 21.4479 93.5818 22.0971 93.0723 22.5825C92.5658 23.0649 91.8135 23.3084 90.8348 23.3084H87.1956V17.8277Z" fill="white"/>
<path d="M117.462 32.1234L117.473 32.1534L118.985 36.1854H123.951L115.126 13.9127H111.366L102.447 36.1854H107.381L108.918 32.1234H117.462V32.1234ZM113.21 20.7909L115.958 28.1155H110.436L113.21 20.7909Z" fill="white"/>
<path d="M145.767 16.8681C144.735 15.8161 143.515 14.9956 142.138 14.4276C140.763 13.861 139.244 13.5725 137.623 13.5725C136.022 13.5725 134.513 13.8595 133.139 14.4276C131.764 14.9956 130.543 15.8161 129.51 16.8681C128.479 17.92 127.662 19.1493 127.079 20.5228C126.495 21.8994 126.2 23.4067 126.2 25.0041C126.2 26.6016 126.497 28.1134 127.079 29.5004C127.662 30.8875 128.485 32.1228 129.527 33.1732C130.568 34.2237 131.798 35.0547 133.182 35.6423C134.569 36.2314 136.083 36.5289 137.684 36.5289C139.265 36.5289 140.768 36.2359 142.154 35.6588C143.541 35.0802 144.761 34.2537 145.783 33.2018C146.804 32.1513 147.616 30.9175 148.198 29.532C148.782 28.1449 149.077 26.6316 149.077 25.0357C149.077 23.4412 148.78 21.9279 148.198 20.5394C147.616 19.1538 146.798 17.9185 145.767 16.8681ZM143.442 28.7551C142.89 29.816 142.108 30.6561 141.116 31.2512C140.123 31.8463 138.947 32.1483 137.624 32.1483C136.656 32.1483 135.75 31.9725 134.933 31.6238C134.116 31.2767 133.409 30.7898 132.829 30.1752C132.25 29.5605 131.795 28.8062 131.481 27.9315C131.164 27.0524 131.003 26.0681 131.003 25.0041C131.003 23.6035 131.289 22.3577 131.85 21.3013C132.411 20.2493 133.194 19.4198 134.176 18.8337C135.159 18.2491 136.319 17.9516 137.623 17.9516C138.631 17.9516 139.548 18.1229 140.345 18.4595C141.141 18.7977 141.845 19.2846 142.433 19.9082C143.023 20.5319 143.482 21.2832 143.798 22.1383C144.115 22.9979 144.274 23.9612 144.274 25.0026C144.276 26.4257 143.996 27.6881 143.442 28.7551Z" fill="white"/>
<path d="M110.004 7.06262L108.282 10.6798H117.016L118.738 7.06262H110.004Z" fill="white"/>
<g clip-path="url(#clip0_601_7278)">
<path d="M250.667 28.5566C250.686 28.5439 250.707 28.5355 250.73 28.532C250.836 28.4907 250.935 28.4537 251.02 28.4177C251.074 28.3902 251.129 28.3669 251.186 28.3482C252.815 27.5772 254.179 25.8786 254.179 24.0904C254.179 20.3372 251.384 19.1582 248.114 19.1582H241.941C242.003 19.2795 242.315 20.6115 242.315 20.6625V37.1954H245.173C245.239 37.196 245.304 37.1834 245.365 37.1584C245.425 37.1335 245.481 37.0965 245.527 37.0499C245.574 37.0032 245.61 36.9477 245.635 36.8867C245.66 36.8256 245.672 36.7602 245.671 36.6943V29.158H247.037C249.047 29.158 250.292 28.692 250.597 28.5847C250.607 28.5663 250.638 28.5592 250.663 28.5566H250.667ZM247.254 26.7578H245.678V21.6278H247.805C249.321 21.6278 250.614 22.4419 250.614 24.0596C250.614 26.1538 249.164 26.7552 247.257 26.7552" fill="white"/>
<path d="M233.524 19.1582H227.83C227.891 19.2787 228.201 20.6115 228.201 20.6625V37.1954H231.062C231.196 37.1971 231.326 37.1453 231.422 37.0515C231.519 36.9576 231.575 36.8292 231.578 36.6943V29.9492H233.583C236.905 29.9492 240.065 28.3227 240.065 24.5572C240.065 20.4893 237.081 19.1582 233.522 19.1582H233.524ZM233.651 27.5605H231.587V21.5988H233.664C235.546 21.5988 236.481 22.7593 236.481 24.5572C236.481 26.3077 235.478 27.5605 233.654 27.5605" fill="white"/>
<path d="M247.876 30.5268L252.02 37.1936H255.848L251.189 30.0107C250.118 30.3521 249 30.5271 247.876 30.5295" fill="white"/>
<path d="M256.822 20.6625V37.191H259.713C259.847 37.1934 259.977 37.1422 260.073 37.0487C260.17 36.9553 260.225 36.8271 260.228 36.6925V19.1582H256.496C256.507 19.2787 256.823 20.6106 256.823 20.6625" fill="white"/>
<path d="M273.004 29.6046C272.664 30.5717 272.594 31.4632 272.347 32.5006C272.146 31.4764 272.006 30.4987 271.631 29.5044L267.816 19.1582H263.094C263.102 19.2787 263.435 20.6106 263.435 20.6625V37.1805H265.653C265.781 37.1691 265.901 37.1098 265.989 37.0144C266.076 36.9189 266.125 36.7941 266.126 36.6644V24.9537C266.126 24.3533 266.006 23.744 265.994 23.1778C266.195 23.7651 266.369 24.3533 266.579 24.9537L271.102 37.1954H272.925L277.316 24.9537C277.527 24.3533 277.7 23.7651 277.905 23.1778C277.829 23.767 277.785 24.3598 277.774 24.9537V37.1805H280.63C280.759 37.1697 280.88 37.1108 280.968 37.0153C281.056 36.9198 281.106 36.7946 281.106 36.6644V19.1582H276.77L273.004 29.6046Z" fill="white"/>
<path d="M291.36 18.8926C285.866 18.8926 282.838 22.8806 282.838 28.1495C282.838 33.3771 285.836 37.4687 291.335 37.4687C296.786 37.4687 300.001 33.5124 300.001 28.211C300.001 22.8067 296.957 18.8917 291.361 18.8917L291.36 18.8926ZM291.437 35.1354C287.575 35.1354 286.455 31.2872 286.455 28.0536C286.455 24.8728 287.603 21.2198 291.393 21.2198C295.266 21.2198 296.371 25.0961 296.371 28.2936C296.371 31.4912 295.224 35.1354 291.437 35.1354" fill="white"/>
<path d="M169.492 28.0017C169.492 29.3363 170.404 30.4775 171.988 30.4775C172.508 30.4836 173.02 30.3571 173.477 30.11V28.8677H171.582V27.8285H174.678V30.6199C173.938 31.2976 172.97 31.6688 171.968 31.6591C169.775 31.6591 168.159 30.0106 168.159 27.9885C168.159 25.9664 169.742 24.3013 171.945 24.3013C172.981 24.3013 173.772 24.5861 174.523 25.1567L173.941 26.137C173.24 25.6684 172.642 25.475 171.981 25.475C170.384 25.475 169.492 26.7076 169.492 28.0017Z" fill="white"/>
<path d="M181.825 28.8573C181.947 29.6213 182.332 30.5277 183.084 30.5277C183.374 30.5246 183.653 30.4119 183.865 30.2121L184.322 31.1088C183.939 31.4732 183.428 31.671 182.901 31.6592C181.226 31.6592 180.711 29.7435 180.637 28.9285H179.438V31.5467H178.139V24.4156H181.205C182.615 24.4156 183.418 25.4856 183.418 26.7077C183.417 27.7469 182.817 28.6041 181.825 28.8573ZM181.002 27.8902C181.673 27.8902 182.099 27.4005 182.099 26.698C182.099 25.9955 181.661 25.4953 181.002 25.4953H179.438V27.8902H181.002Z" fill="white"/>
<path d="M192.886 24.4156V28.8784C192.886 30.7009 191.566 31.6592 190.013 31.6592C188.46 31.6592 187.141 30.7009 187.141 28.8784V24.4156H188.44V28.8784C188.44 29.9879 189.161 30.5382 190.017 30.5382C190.872 30.5382 191.593 29.9879 191.593 28.8784V24.4156H192.886Z" fill="white"/>
<path d="M196.65 31.5467V24.4156H199.635C201.056 24.4156 201.857 25.4707 201.857 26.7077C201.857 27.9447 201.045 28.939 199.635 28.939H197.95V31.5467H196.65ZM199.433 27.9095C200.112 27.9095 200.529 27.411 200.529 26.698C200.529 25.9639 200.112 25.4671 199.433 25.4671H197.95V27.9113L199.433 27.9095Z" fill="white"/>
<path d="M208.342 24.304C210.373 24.304 212.058 25.9542 212.058 27.9816C212.058 30.0089 210.373 31.6592 208.342 31.6592C206.312 31.6592 204.628 30.0089 204.628 27.9816C204.628 25.9542 206.313 24.304 208.342 24.304ZM208.342 30.4775C209.652 30.4775 210.738 29.4225 210.738 27.9816C210.738 26.5406 209.652 25.4856 208.342 25.4856C207.033 25.4856 205.947 26.545 205.947 27.9816C205.947 29.4181 207.033 30.4775 208.342 30.4775Z" fill="white"/>
<path d="M220.776 15.5957H220.124V39.5251H220.776V15.5957Z" fill="white"/>
</g>
<path d="M174.73 3.28H175.786V9.05359C175.786 9.64969 175.645 10.1819 175.364 10.6503C175.086 11.1158 174.693 11.4834 174.185 11.753C173.677 12.0199 173.08 12.1533 172.396 12.1533C171.712 12.1533 171.116 12.0199 170.608 11.753C170.1 11.4834 169.705 11.1158 169.424 10.6503C169.146 10.1819 169.007 9.64969 169.007 9.05359V3.28H170.063V8.96844C170.063 9.39422 170.157 9.77316 170.344 10.1053C170.531 10.4345 170.798 10.6943 171.145 10.8845C171.494 11.0718 171.911 11.1655 172.396 11.1655C172.882 11.1655 173.299 11.0718 173.648 10.8845C173.997 10.6943 174.264 10.4345 174.449 10.1053C174.636 9.77316 174.73 9.39422 174.73 8.96844V3.28ZM177.894 3.28H179.155L182.118 10.5183H182.22L185.184 3.28H186.444V12H185.456V5.37484H185.371L182.646 12H181.692L178.967 5.37484H178.882V12H177.894V3.28ZM188.919 12H187.812L191.014 3.28H192.104L195.305 12H194.198L191.593 4.65953H191.525L188.919 12ZM189.328 8.59375H193.79V9.53047H189.328V8.59375ZM200.036 12V3.28H205.299V4.21672H201.092V7.16313H205.026V8.09984H201.092V11.0633H205.367V12H200.036ZM207.202 3.28H208.462L211.426 10.5183H211.528L214.491 3.28H215.752V12H214.764V5.37484H214.679L211.954 12H211L208.275 5.37484H208.19V12H207.202V3.28ZM217.869 12V3.28H220.815C221.499 3.28 222.058 3.40348 222.493 3.65043C222.93 3.89454 223.253 4.22523 223.463 4.6425C223.674 5.05977 223.779 5.52529 223.779 6.03906C223.779 6.55284 223.674 7.01978 223.463 7.43988C223.256 7.85999 222.935 8.19493 222.501 8.44473C222.067 8.69168 221.511 8.81516 220.832 8.81516H218.72V7.87844H220.798C221.266 7.87844 221.643 7.79754 221.926 7.63574C222.21 7.47395 222.416 7.25538 222.544 6.98004C222.674 6.70186 222.74 6.3882 222.74 6.03906C222.74 5.68992 222.674 5.37768 222.544 5.10234C222.416 4.82701 222.209 4.61128 221.922 4.45516C221.635 4.2962 221.255 4.21672 220.781 4.21672H218.925V12H217.869ZM225.48 12V3.28H228.426C229.107 3.28 229.666 3.39638 230.104 3.62914C230.541 3.85906 230.864 4.17556 231.074 4.57863C231.284 4.98171 231.389 5.44013 231.389 5.95391C231.389 6.46768 231.284 6.92327 231.074 7.32066C230.864 7.71806 230.542 8.0303 230.108 8.25738C229.673 8.48163 229.119 8.59375 228.443 8.59375H226.059V7.64H228.409C228.874 7.64 229.249 7.57187 229.533 7.43562C229.82 7.29937 230.027 7.10635 230.155 6.85656C230.285 6.60393 230.35 6.30305 230.35 5.95391C230.35 5.60477 230.285 5.29962 230.155 5.03848C230.024 4.77733 229.815 4.57579 229.529 4.43387C229.242 4.2891 228.863 4.21672 228.392 4.21672H226.535V12H225.48ZM229.584 8.08281L231.73 12H230.504L228.392 8.08281H229.584ZM233.149 12V3.28H238.412V4.21672H234.205V7.16313H238.139V8.09984H234.205V11.0633H238.48V12H233.149ZM245.084 5.46C245.032 5.02854 244.825 4.69359 244.462 4.45516C244.099 4.21672 243.653 4.0975 243.125 4.0975C242.739 4.0975 242.401 4.15995 242.112 4.28484C241.825 4.40974 241.601 4.58147 241.439 4.80004C241.28 5.01861 241.2 5.26698 241.2 5.54516C241.2 5.77792 241.256 5.97803 241.367 6.14551C241.48 6.31014 241.625 6.44781 241.801 6.55852C241.977 6.66638 242.161 6.75579 242.354 6.82676C242.547 6.89488 242.725 6.95023 242.887 6.99281L243.772 7.23125C243.999 7.29086 244.252 7.37318 244.53 7.4782C244.811 7.58323 245.079 7.72658 245.335 7.90824C245.593 8.08707 245.806 8.31699 245.973 8.59801C246.141 8.87902 246.225 9.22391 246.225 9.63266C246.225 10.1039 246.101 10.5296 245.854 10.91C245.61 11.2904 245.252 11.5927 244.781 11.8169C244.313 12.0412 243.744 12.1533 243.074 12.1533C242.449 12.1533 241.909 12.0525 241.452 11.851C240.997 11.6494 240.64 11.3684 240.379 11.0079C240.12 10.6474 239.974 10.2288 239.94 9.75188H241.03C241.059 10.0811 241.169 10.3536 241.362 10.5694C241.558 10.7823 241.805 10.9412 242.103 11.0463C242.404 11.1484 242.728 11.1995 243.074 11.1995C243.477 11.1995 243.839 11.1342 244.16 11.0037C244.48 10.8703 244.734 10.6858 244.922 10.4502C245.109 10.2117 245.203 9.93354 245.203 9.61562C245.203 9.32609 245.122 9.09049 244.96 8.90883C244.798 8.72716 244.585 8.57956 244.321 8.46602C244.057 8.35247 243.772 8.25312 243.466 8.16797L242.393 7.86141C241.711 7.66555 241.172 7.38595 240.775 7.02262C240.377 6.65928 240.179 6.18383 240.179 5.59625C240.179 5.10802 240.311 4.68224 240.575 4.31891C240.841 3.95273 241.199 3.66888 241.648 3.46734C242.099 3.26297 242.603 3.16078 243.159 3.16078C243.721 3.16078 244.221 3.26155 244.658 3.46309C245.095 3.66178 245.441 3.93428 245.697 4.28059C245.955 4.62689 246.091 5.02003 246.105 5.46H245.084ZM248.318 12H247.211L250.413 3.28H251.503L254.705 12H253.598L250.992 4.65953H250.924L248.318 12ZM248.727 8.59375H253.189V9.53047H248.727V8.59375ZM262.127 12H259.436V3.28H262.246C263.092 3.28 263.815 3.45457 264.417 3.80371C265.019 4.15001 265.48 4.64818 265.801 5.2982C266.122 5.94539 266.282 6.72031 266.282 7.62297C266.282 8.5313 266.12 9.31332 265.797 9.96902C265.473 10.6219 265.002 11.1243 264.383 11.4763C263.764 11.8254 263.012 12 262.127 12ZM260.492 11.0633H262.058C262.779 11.0633 263.377 10.9242 263.851 10.646C264.325 10.3678 264.678 9.97186 264.911 9.45809C265.144 8.94431 265.26 8.3326 265.26 7.62297C265.26 6.91901 265.145 6.31298 264.915 5.80488C264.685 5.29395 264.342 4.90223 263.885 4.62973C263.428 4.35439 262.859 4.21672 262.178 4.21672H260.492V11.0633ZM275.411 7.64C275.411 8.55969 275.245 9.35448 274.913 10.0244C274.581 10.6943 274.125 11.2109 273.546 11.5742C272.967 11.9376 272.306 12.1192 271.562 12.1192C270.818 12.1192 270.157 11.9376 269.578 11.5742C268.999 11.2109 268.543 10.6943 268.211 10.0244C267.879 9.35448 267.713 8.55969 267.713 7.64C267.713 6.72031 267.879 5.92552 268.211 5.25563C268.543 4.58573 268.999 4.06911 269.578 3.70578C270.157 3.34245 270.818 3.16078 271.562 3.16078C272.306 3.16078 272.967 3.34245 273.546 3.70578C274.125 4.06911 274.581 4.58573 274.913 5.25563C275.245 5.92552 275.411 6.72031 275.411 7.64ZM274.389 7.64C274.389 6.88495 274.263 6.2477 274.01 5.72824C273.76 5.20879 273.421 4.81565 272.992 4.54883C272.567 4.28201 272.09 4.14859 271.562 4.14859C271.034 4.14859 270.556 4.28201 270.127 4.54883C269.701 4.81565 269.362 5.20879 269.109 5.72824C268.86 6.2477 268.735 6.88495 268.735 7.64C268.735 8.39505 268.86 9.0323 269.109 9.55176C269.362 10.0712 269.701 10.4643 270.127 10.7312C270.556 10.998 271.034 11.1314 271.562 11.1314C272.09 11.1314 272.567 10.998 272.992 10.7312C273.421 10.4643 273.76 10.0712 274.01 9.55176C274.263 9.0323 274.389 8.39505 274.389 7.64Z" fill="white"/>
<defs>
<clipPath id="clip0_601_7278">
<rect width="131.838" height="23.9294" fill="white" transform="translate(168.162 15.5957)"/>
</clipPath>
</defs>
</svg>
